<svg id="visual" viewBox="0 0 900 300" width="900" height="300" xmlns="http://www.w3.org/2000/svg" xmlns:xlink="http://www.w3.org/1999/xlink" version="1.1"><rect x="0" y="0" width="900" height="300" fill="#1E97FD"></rect><path d="M0 133L6 145.3C12 157.7 24 182.3 36 197C48 211.7 60 216.3 72 212.8C84 209.3 96 197.7 108 200.7C120 203.7 132 221.3 144 231.3C156 241.3 168 243.7 180 244.2C192 244.7 204 243.3 216 228.8C228 214.3 240 186.7 252 187C264 187.3 276 215.7 288 220.5C300 225.3 312 206.7 324 190.2C336 173.7 348 159.3 360 169C372 178.7 384 212.3 396 215.8C408 219.3 420 192.7 432 175.2C444 157.7 456 149.3 468 149.2C480 149 492 157 504 159.2C516 161.3 528 157.7 540 164.8C552 172 564 190 576 188.2C588 186.3 600 164.7 612 171.5C624 178.3 636 213.7 648 230.7C660 247.7 672 246.3 684 230.3C696 214.3 708 183.7 720 170.8C732 158 744 163 756 171C768 179 780 190 792 204C804 218 816 235 828 241.5C840 248 852 244 864 225C876 206 888 172 894 155L900 138L900 301L894 301C888 301 876 301 864 301C852 301 840 301 828 301C816 301 804 301 792 301C780 301 768 301 756 301C744 301 732 301 720 301C708 301 696 301 684 301C672 301 660 301 648 301C636 301 624 301 612 301C600 301 588 301 576 301C564 301 552 301 540 301C528 301 516 301 504 301C492 301 480 301 468 301C456 301 444 301 432 301C420 301 408 301 396 301C384 301 372 301 360 301C348 301 336 301 324 301C312 301 300 301 288 301C276 301 264 301 252 301C240 301 228 301 216 301C204 301 192 301 180 301C168 301 156 301 144 301C132 301 120 301 108 301C96 301 84 301 72 301C60 301 48 301 36 301C24 301 12 301 6 301L0 301Z" fill="#0066FF" stroke-linecap="round" stroke-linejoin="miter"></path></svg>