<svg id="visual" viewBox="0 0 900 600" width="900" height="600" xmlns="http://www.w3.org/2000/svg" xmlns:xlink="http://www.w3.org/1999/xlink" version="1.1"><path d="M0 127L11.5 133C23 139 46 151 69 148C92 145 115 127 138.2 108C161.3 89 184.7 69 207.8 72C231 75 254 101 277 109C300 117 323 107 346 96C369 85 392 73 415.2 79C438.3 85 461.7 109 484.8 123C508 137 531 141 554 129C577 117 600 89 623 92C646 95 669 129 692.2 136C715.3 143 738.7 123 761.8 108C785 93 808 83 831 87C854 91 877 109 888.5 118L900 127L900 0L888.5 0C877 0 854 0 831 0C808 0 785 0 761.8 0C738.7 0 715.3 0 692.2 0C669 0 646 0 623 0C600 0 577 0 554 0C531 0 508 0 484.8 0C461.7 0 438.3 0 415.2 0C392 0 369 0 346 0C323 0 300 0 277 0C254 0 231 0 207.8 0C184.7 0 161.3 0 138.2 0C115 0 92 0 69 0C46 0 23 0 11.5 0L0 0Z" fill="#0066ff"></path><path d="M0 163L11.5 171C23 179 46 195 69 200C92 205 115 199 138.2 179C161.3 159 184.7 125 207.8 122C231 119 254 147 277 164C300 181 323 187 346 182C369 177 392 161 415.2 166C438.3 171 461.7 197 484.8 212C508 227 531 231 554 214C577 197 600 159 623 153C646 147 669 173 692.2 179C715.3 185 738.7 171 761.8 157C785 143 808 129 831 130C854 131 877 147 888.5 155L900 163L900 125L888.5 116C877 107 854 89 831 85C808 81 785 91 761.8 106C738.7 121 715.3 141 692.2 134C669 127 646 93 623 90C600 87 577 115 554 127C531 139 508 135 484.8 121C461.7 107 438.3 83 415.2 77C392 71 369 83 346 94C323 105 300 115 277 107C254 99 231 73 207.8 70C184.7 67 161.3 87 138.2 106C115 125 92 143 69 146C46 149 23 137 11.5 131L0 125Z" fill="#0957ea"></path><path d="M0 253L11.5 260C23 267 46 281 69 278C92 275 115 255 138.2 235C161.3 215 184.7 195 207.8 195C231 195 254 215 277 233C300 251 323 267 346 266C369 265 392 247 415.2 243C438.3 239 461.7 249 484.8 257C508 265 531 271 554 261C577 251 600 225 623 227C646 229 669 259 692.2 262C715.3 265 738.7 241 761.8 224C785 207 808 197 831 197C854 197 877 207 888.5 212L900 217L900 161L888.5 153C877 145 854 129 831 128C808 127 785 141 761.8 155C738.7 169 715.3 183 692.2 177C669 171 646 145 623 151C600 157 577 195 554 212C531 229 508 225 484.8 210C461.7 195 438.3 169 415.2 164C392 159 369 175 346 180C323 185 300 179 277 162C254 145 231 117 207.8 120C184.7 123 161.3 157 138.2 177C115 197 92 203 69 198C46 193 23 177 11.5 169L0 161Z" fill="#0c47d4"></path><path d="M0 343L11.5 348C23 353 46 363 69 372C92 381 115 389 138.2 393C161.3 397 184.7 397 207.8 413C231 429 254 461 277 469C300 477 323 461 346 435C369 409 392 373 415.2 357C438.3 341 461.7 345 484.8 367C508 389 531 429 554 430C577 431 600 393 623 393C646 393 669 431 692.2 431C715.3 431 738.7 393 761.8 366C785 339 808 323 831 326C854 329 877 351 888.5 362L900 373L900 215L888.5 210C877 205 854 195 831 195C808 195 785 205 761.8 222C738.7 239 715.3 263 692.2 260C669 257 646 227 623 225C600 223 577 249 554 259C531 269 508 263 484.8 255C461.7 247 438.3 237 415.2 241C392 245 369 263 346 264C323 265 300 249 277 231C254 213 231 193 207.8 193C184.7 193 161.3 213 138.2 233C115 253 92 273 69 276C46 279 23 265 11.5 258L0 251Z" fill="#0b39c0"></path><path d="M0 391L11.5 395C23 399 46 407 69 413C92 419 115 423 138.2 428C161.3 433 184.7 439 207.8 456C231 473 254 501 277 506C300 511 323 493 346 476C369 459 392 443 415.2 436C438.3 429 461.7 431 484.8 445C508 459 531 485 554 481C577 477 600 443 623 442C646 441 669 473 692.2 483C715.3 493 738.7 481 761.8 466C785 451 808 433 831 431C854 429 877 443 888.5 450L900 457L900 371L888.5 360C877 349 854 327 831 324C808 321 785 337 761.8 364C738.7 391 715.3 429 692.2 429C669 429 646 391 623 391C600 391 577 429 554 428C531 427 508 387 484.8 365C461.7 343 438.3 339 415.2 355C392 371 369 407 346 433C323 459 300 475 277 467C254 459 231 427 207.8 411C184.7 395 161.3 395 138.2 391C115 387 92 379 69 370C46 361 23 351 11.5 346L0 341Z" fill="#062aac"></path><path d="M0 601L11.5 601C23 601 46 601 69 601C92 601 115 601 138.2 601C161.3 601 184.7 601 207.8 601C231 601 254 601 277 601C300 601 323 601 346 601C369 601 392 601 415.2 601C438.3 601 461.7 601 484.8 601C508 601 531 601 554 601C577 601 600 601 623 601C646 601 669 601 692.2 601C715.3 601 738.7 601 761.8 601C785 601 808 601 831 601C854 601 877 601 888.5 601L900 601L900 455L888.5 448C877 441 854 427 831 429C808 431 785 449 761.8 464C738.7 479 715.3 491 692.2 481C669 471 646 439 623 440C600 441 577 475 554 479C531 483 508 457 484.8 443C461.7 429 438.3 427 415.2 434C392 441 369 457 346 474C323 491 300 509 277 504C254 499 231 471 207.8 454C184.7 437 161.3 431 138.2 426C115 421 92 417 69 411C46 405 23 397 11.5 393L0 389Z" fill="#001b98"></path></svg>